<svg width="32" height="32" viewBox="0 0 32 32" fill="none" xmlns="http://www.w3.org/2000/svg">
<circle cx="16" cy="16" r="16" fill="#FF5A5F"/>
<path d="M26.1185 19.9199C26.0064 19.6509 25.8943 19.3594 25.7821 19.1127C25.6028 18.7091 25.4234 18.3279 25.2664 17.9692L25.244 17.9467C23.6969 14.5834 22.0376 11.1752 20.2887 7.81181L20.2214 7.67728C20.042 7.34094 19.8626 6.98218 19.6832 6.62342C19.459 6.21982 19.2348 5.79379 18.876 5.39019C18.1585 4.49329 17.1271 4 16.0284 4C14.9073 4 13.8983 4.49329 13.1583 5.34535C12.822 5.74895 12.5753 6.17497 12.3511 6.57858C12.1717 6.93734 11.9924 7.2961 11.813 7.63243L11.7457 7.76697C10.0192 11.1303 8.3375 14.5385 6.79035 17.9019L6.76793 17.9467C6.61098 18.3055 6.4316 18.6867 6.25222 19.0903C6.1401 19.3369 6.02799 19.606 5.91588 19.8975C5.62439 20.7271 5.5347 21.5119 5.64681 22.3191C5.89346 24.0008 7.01458 25.4134 8.56173 26.0412C9.14471 26.2879 9.75011 26.4 10.3779 26.4C10.5573 26.4 10.7815 26.3776 10.9609 26.3552C11.7009 26.2655 12.4632 26.0188 13.2032 25.5928C14.1225 25.0771 14.997 24.3371 15.9835 23.2609C16.9701 24.3371 17.867 25.0771 18.7639 25.5928C19.5039 26.0188 20.2662 26.2655 21.0062 26.3552C21.1855 26.3776 21.4098 26.4 21.5892 26.4C22.217 26.4 22.8448 26.2879 23.4054 26.0412C24.9749 25.4134 26.0736 23.9784 26.3203 22.3191C26.4997 21.5343 26.41 20.7495 26.1185 19.9199ZM16.006 21.0859C14.7952 19.5612 14.0104 18.1261 13.7413 16.9153C13.6292 16.3996 13.6068 15.9511 13.674 15.5475C13.7189 15.1888 13.8534 14.8749 14.0328 14.6058C14.4588 14.0004 15.1763 13.6192 16.006 13.6192C16.8356 13.6192 17.5755 13.978 17.9791 14.6058C18.1585 14.8749 18.2931 15.1888 18.3379 15.5475C18.4052 15.9511 18.3827 16.422 18.2706 16.9153C18.0016 18.1037 17.2168 19.5387 16.006 21.0859ZM24.9525 22.1397C24.7956 23.3057 24.0108 24.3147 22.9121 24.7632C22.3739 24.9874 21.791 25.0547 21.208 24.9874C20.6474 24.9201 20.0869 24.7407 19.5039 24.4044C18.6967 23.956 17.8895 23.2609 16.9477 22.2294C18.4276 20.4132 19.3245 18.754 19.6608 17.2741C19.8178 16.579 19.8402 15.9512 19.7729 15.3682C19.6832 14.8076 19.4814 14.2919 19.1675 13.8434C18.4724 12.8344 17.3065 12.2515 16.006 12.2515C14.7055 12.2515 13.5395 12.8569 12.8444 13.8434C12.5305 14.2919 12.3287 14.8076 12.239 15.3682C12.1493 15.9512 12.1717 16.6014 12.3511 17.2741C12.6875 18.754 13.6068 20.4356 15.0642 22.2519C14.1449 23.2833 13.3153 23.9784 12.5081 24.4268C11.9251 24.7632 11.3645 24.9425 10.804 25.0098C10.1986 25.0771 9.61558 24.9874 9.09986 24.7856C8.00117 24.3371 7.21638 23.3281 7.05942 22.1622C6.99216 21.6016 7.037 21.041 7.26123 20.4132C7.32849 20.189 7.4406 19.9648 7.55272 19.6957C7.70967 19.3369 7.88905 18.9558 8.06843 18.5746L8.09086 18.5297C9.638 15.1888 11.2973 11.7806 13.0238 8.46206L13.0911 8.32753C13.2704 7.99119 13.4498 7.63243 13.6292 7.2961C13.8086 6.93734 14.0104 6.601 14.257 6.30951C14.7279 5.77137 15.3557 5.47988 16.0508 5.47988C16.7459 5.47988 17.3737 5.77137 17.8446 6.30951C18.0913 6.601 18.2931 6.93734 18.4724 7.2961C18.6518 7.63243 18.8312 7.99119 19.0106 8.32753L19.0778 8.46206C20.7819 11.803 22.4412 15.2112 23.9884 18.5522V18.5746C24.1677 18.9333 24.3247 19.3369 24.5041 19.6957C24.6162 19.9648 24.7283 20.189 24.7956 20.4132C24.9749 20.9962 25.0422 21.5568 24.9525 22.1397Z" fill="white"/>
</svg>

