<svg width="32" height="32" viewBox="0 0 32 32" fill="none" xmlns="http://www.w3.org/2000/svg">
<circle cx="16" cy="16" r="16" fill="#0C3B7C"/>
<path d="M14.5433 20.6849L11.9659 20.6824V17.6006C11.9659 16.9421 12.2213 16.5994 12.7848 16.5211H14.5433C15.7973 16.5211 16.6085 17.3118 16.6085 18.5914C16.6085 19.9058 15.8178 20.6837 14.5433 20.6849H14.5433ZM11.9659 12.3726V11.5614C11.9659 10.8516 12.2662 10.5141 12.9247 10.4704H14.2442C15.375 10.4704 16.0527 11.1468 16.0527 12.2802C16.0527 13.1428 15.5881 14.1504 14.2853 14.1504H11.9659V12.3726ZM17.8343 15.448L17.3684 15.1862L17.7753 14.8383C18.2489 14.4315 19.0421 13.5163 19.0421 11.9375C19.0421 9.5193 17.1669 7.95979 14.2647 7.95979H10.9532V7.9585H10.5758C9.71583 7.99059 9.02656 8.69013 9.01758 9.55525V23.2764H14.3302C17.5558 23.2764 19.6377 21.5205 19.6377 18.8007C19.6377 17.3361 18.9651 16.0847 17.8343 15.448Z" fill="white"/>
<path d="M21.0212 21.381C21.0212 20.3329 21.8666 19.4849 22.9082 19.4849C23.9524 19.4849 24.8018 20.3329 24.8018 21.381C24.8018 22.4279 23.9524 23.2772 22.9082 23.2772C21.8666 23.2772 21.0212 22.4279 21.0212 21.381Z" fill="#00BAFC"/>
</svg>

