<svg width="32" height="32" viewBox="0 0 32 32" fill="none" xmlns="http://www.w3.org/2000/svg">
<path d="M18.6502 12.284L18.0147 10.4668L12.5522 3.15741L13.5257 2.91332L22.9229 11.0635L28.453 9.47685C29.102 9.31412 29.8456 9.27343 30.4 9.27343C28.6693 5.51703 25.4783 2.42512 21.2868 0.933407C12.9984 -2.03646 3.87172 2.31663 0.92413 10.6431C0.00469888 13.2197 -0.198117 15.8777 0.180472 18.4L13.4176 13.7893L18.6502 12.284Z" fill="#072F54"/>
<path d="M31.1116 11.2002C30.6306 11.5049 29.9226 11.9157 29.2279 12.1409L23.7508 13.6912L20.1038 25.3245L19.1553 25.6293L19.9301 16.7519L19.5026 14.9102L14.3728 16.3676L0.800049 19.5078C1.88213 24.6753 5.5692 29.1935 10.9529 31.0882C19.1553 33.9899 28.1592 29.7367 31.0848 21.6013C32.3406 18.1166 32.2604 14.4597 31.1116 11.2002Z" fill="#072F54"/>
<path d="M19.3032 14.7098L19.7413 16.581L18.9473 25.6002L19.9193 25.2906L23.6567 13.4713L29.2697 11.8963C29.9816 11.6675 30.7072 11.2637 31.2 10.9406C31.022 10.456 30.8304 9.98481 30.6113 9.51366C30.0363 9.51366 29.2971 9.54058 28.6399 9.71558L23.0406 11.2906L13.5259 3.2002L12.5402 3.4425L18.0574 10.6983L18.7008 12.5021L13.4027 13.9963L0 18.5733C0.0410706 18.8425 0.0958315 19.1252 0.150592 19.3944L14.0462 16.1771L19.3032 14.7098Z" fill="#FBC108"/>
</svg>

