<svg width="32" height="32" viewBox="0 0 32 32" fill="none" xmlns="http://www.w3.org/2000/svg">
<rect width="32" height="32" rx="16" fill="white"/>
<rect x="0.5" y="0.5" width="31" height="31" rx="15.5" stroke="black" stroke-opacity="0.12"/>
<path d="M27.5903 16.2665C27.5903 15.4869 27.5212 14.7468 27.4028 14.0264H16.2515V18.477H22.6363C22.3501 19.9376 21.5113 21.1711 20.2679 22.0099V24.9704H24.0771C26.3074 22.9079 27.5903 19.8685 27.5903 16.2665Z" fill="#4285F4"/>
<path d="M16.2515 27.842C19.4488 27.842 22.1232 26.7762 24.0771 24.9703L20.2679 22.0098C19.2021 22.7203 17.8501 23.1545 16.2515 23.1545C13.1626 23.1545 10.5475 21.0723 9.61001 18.2598H5.68237V21.3091C7.62645 25.1775 11.6232 27.842 16.2515 27.842Z" fill="#34A853"/>
<path d="M9.61008 18.2595C9.36337 17.549 9.23508 16.7891 9.23508 15.9996C9.23508 15.2102 9.37324 14.4503 9.61008 13.7398V10.6904H5.68245C4.87324 12.2891 4.40942 14.0852 4.40942 15.9996C4.40942 17.9141 4.87324 19.7102 5.68245 21.3088L9.61008 18.2595Z" fill="#FBBC05"/>
<path d="M16.2515 8.84521C17.9982 8.84521 19.5574 9.44719 20.7909 10.6215L24.1659 7.24653C22.1232 5.33206 19.4488 4.15771 16.2515 4.15771C11.6232 4.15771 7.62645 6.82219 5.68237 10.6906L9.61001 13.74C10.5475 10.9275 13.1626 8.84521 16.2515 8.84521Z" fill="#EA4335"/>
</svg>

