<svg width="32" height="32" viewBox="0 0 32 32" fill="none" xmlns="http://www.w3.org/2000/svg">
<rect width="32" height="32" rx="16" fill="white"/>
<rect x="0.5" y="0.5" width="31" height="31" rx="15.5" stroke="black" stroke-opacity="0.12"/>
<g clip-path="url(#clip0_339_14286)">
<mask id="mask0_339_14286" style="mask-type:alpha" maskUnits="userSpaceOnUse" x="8" y="5" width="112" height="21">
<path d="M8.80005 25.2841H119.583V5.59961H8.80005V25.2841Z" fill="white"/>
</mask>
<g mask="url(#mask0_339_14286)">
<path fill-rule="evenodd" clip-rule="evenodd" d="M21.9374 24.4678V9.66818H21.9125L23.3227 7.42492V24.4678H21.9374ZM9.61613 7.42492L11.0263 9.66818H11.0014V24.4678H9.61613V7.42492ZM15.3149 6.41594H17.6239L16.4696 8.25308L15.3149 6.41594ZM16.4696 9.78696L18.588 6.41594H20.3149L16.4696 12.5355L12.6239 6.41594H14.3508L16.4696 9.78696ZM16.4696 16.7955L9.94674 6.41594H11.6594L16.4696 14.0698L21.2794 6.41594H22.992L16.4696 16.7955ZM19.7227 13.1531L21.121 10.9282V24.4678H19.7353V13.1531H19.7227ZM14.0198 24.4678H18.9194V22.5261H14.0198V24.4678ZM14.0198 17.3065V14.4319L15.8259 17.3065H14.0198ZM18.919 17.3065H17.1129L18.919 14.4319V17.3065ZM18.919 19.5082H14.0198V18.1229H16.339H16.5998H18.919V19.5082ZM14.0198 21.7102H18.9194V20.3245H14.0198V21.7102ZM13.2161 13.1531H13.2035V24.4678H11.8178V10.9282L13.2161 13.1531ZM8.7998 25.2841H24.1386V5.59961H8.7998V25.2841Z" fill="#F69464"/>
</g>
</g>
<defs>
<clipPath id="clip0_339_14286">
<rect width="15.5102" height="20" fill="white" transform="translate(8.80005 5.6001)"/>
</clipPath>
</defs>
</svg>

